<svg width="1073" height="893" xmlns="http://www.w3.org/2000/svg"><g><path d="M-115,-30L-120,34L63,57Z" fill="#fcfbfd" stroke="#fcfbfd"/><path d="M-115,-30L63,57L100,-113Z" fill="#f8f7fb" stroke="#f8f7fb"/><path d="M100,-113L63,57L179,-21Z" fill="#f0eff7" stroke="#f0eff7"/><path d="M100,-113L179,-21L387,-43Z" fill="#e9e8f3" stroke="#e9e8f3"/><path d="M100,-113L387,-43L1022,-127Z" fill="#d2d0e5" stroke="#d2d0e5"/><path d="M179,-21L63,57L215,70Z" fill="#edecf5" stroke="#edecf5"/><path d="M179,-21L215,70L387,-43Z" fill="#e6e5f1" stroke="#e6e5f1"/><path d="M387,-43L215,70L395,109Z" fill="#deddee" stroke="#deddee"/><path d="M387,-43L395,109L489,82Z" fill="#d7d5e9" stroke="#d7d5e9"/><path d="M387,-43L489,82L511,-17Z" fill="#d5d3e7" stroke="#d5d3e7"/><path d="M387,-43L511,-17L663,-35Z" fill="#d0cee5" stroke="#d0cee5"/><path d="M387,-43L663,-35L1022,-127Z" fill="#c0b8d9" stroke="#c0b8d9"/><path d="M511,-17L489,82L639,48Z" fill="#cdcae3" stroke="#cdcae3"/><path d="M511,-17L639,48L663,-35Z" fill="#c8c4df" stroke="#c8c4df"/><path d="M663,-35L639,48L861,75Z" fill="#bcb3d7" stroke="#bcb3d7"/><path d="M663,-35L861,75L870,-47Z" fill="#b5a9d2" stroke="#b5a9d2"/><path d="M663,-35L870,-47L1022,-127Z" fill="#b0a2ce" stroke="#b0a2ce"/><path d="M870,-47L861,75L959,53Z" fill="#ab9bcb" stroke="#ab9bcb"/><path d="M870,-47L959,53L1022,-127Z" fill="#a794c7" stroke="#a794c7"/><path d="M1022,-127L959,53L1162,25Z" fill="#9d87c0" stroke="#9d87c0"/><path d="M1022,-127L1162,25L1171,-124Z" fill="#9680bc" stroke="#9680bc"/><path d="M1171,-124L1162,25L1215,-68Z" fill="#9080b7" stroke="#9080b7"/><path d="M1215,-68L1162,25L1272,20Z" fill="#8d80b5" stroke="#8d80b5"/><path d="M-120,34L-129,241L63,57Z" fill="#faf9fe" stroke="#faf9fe"/><path d="M63,57L-129,241L122,227Z" fill="#f2f0fb" stroke="#f2f0fb"/><path d="M63,57L122,227L207,168Z" fill="#ebe9f6" stroke="#ebe9f6"/><path d="M63,57L207,168L215,70Z" fill="#eae8f5" stroke="#eae8f5"/><path d="M215,70L207,168L395,109Z" fill="#e1e0f1" stroke="#e1e0f1"/><path d="M395,109L207,168L423,216Z" fill="#dad8ed" stroke="#dad8ed"/><path d="M395,109L423,216L489,82Z" fill="#d3d1e9" stroke="#d3d1e9"/><path d="M489,82L423,216L469,265Z" fill="#d0cde7" stroke="#d0cde7"/><path d="M489,82L469,265L639,48Z" fill="#cbc9e4" stroke="#cbc9e4"/><path d="M639,48L469,265L718,284Z" fill="#c2bcdf" stroke="#c2bcdf"/><path d="M639,48L718,284L848,168Z" fill="#b7acd6" stroke="#b7acd6"/><path d="M639,48L848,168L861,75Z" fill="#b4a8d3" stroke="#b4a8d3"/><path d="M861,75L848,168L954,175Z" fill="#a998cc" stroke="#a998cc"/><path d="M861,75L954,175L959,53Z" fill="#a694c9" stroke="#a694c9"/><path d="M959,53L954,175L1162,25Z" fill="#9d87c2" stroke="#9d87c2"/><path d="M1162,25L954,175L1136,259Z" fill="#957dbe" stroke="#957dbe"/><path d="M1162,25L1136,259L1255,252Z" fill="#8b7ab7" stroke="#8b7ab7"/><path d="M1162,25L1255,252L1272,20Z" fill="#897cb4" stroke="#897cb4"/><path d="M1272,20L1255,252L1332,342Z" fill="#8079b0" stroke="#8079b0"/><path d="M-129,241L-121,417L-36,465Z" fill="#e6e4f9" stroke="#e6e4f9"/><path d="M-129,241L-36,465L122,227Z" fill="#e9e6f9" stroke="#e9e6f9"/><path d="M122,227L-36,465L135,432Z" fill="#dad8f3" stroke="#dad8f3"/><path d="M122,227L135,432L254,393Z" fill="#d6d4f0" stroke="#d6d4f0"/><path d="M122,227L254,393L207,168Z" fill="#dfddf2" stroke="#dfddf2"/><path d="M207,168L254,393L389,317Z" fill="#d5d3ee" stroke="#d5d3ee"/><path d="M207,168L389,317L423,216Z" fill="#d7d5ed" stroke="#d7d5ed"/><path d="M423,216L389,317L469,265Z" fill="#ccc9e8" stroke="#ccc9e8"/><path d="M469,265L389,317L491,350Z" fill="#c5c2e5" stroke="#c5c2e5"/><path d="M469,265L491,350L718,284Z" fill="#bdb9e0" stroke="#bdb9e0"/><path d="M718,284L491,350L656,427Z" fill="#b0a9d9" stroke="#b0a9d9"/><path d="M718,284L656,427L819,341Z" fill="#a69bd2" stroke="#a69bd2"/><path d="M718,284L819,341L848,168Z" fill="#aa9dd0" stroke="#aa9dd0"/><path d="M848,168L819,341L924,324Z" fill="#a292cb" stroke="#a292cb"/><path d="M848,168L924,324L954,175Z" fill="#a493ca" stroke="#a493ca"/><path d="M954,175L924,324L1079,321Z" fill="#9782c3" stroke="#9782c3"/><path d="M954,175L1079,321L1136,259Z" fill="#927bbf" stroke="#927bbf"/><path d="M1136,259L1079,321L1332,342Z" fill="#806eb4" stroke="#806eb4"/><path d="M1136,259L1332,342L1255,252Z" fill="#7c71b1" stroke="#7c71b1"/><path d="M-121,417L-78,953L-57,786Z" fill="#b7a5db" stroke="#b7a5db"/><path d="M-121,417L-57,786L-46,643Z" fill="#c5b8e5" stroke="#c5b8e5"/><path d="M-121,417L-46,643L-36,465Z" fill="#d4cdf0" stroke="#d4cdf0"/><path d="M135,432L-36,465L40,482Z" fill="#d2cef0" stroke="#d2cef0"/><path d="M135,432L40,482L177,497Z" fill="#cbc7ec" stroke="#cbc7ec"/><path d="M135,432L177,497L254,393Z" fill="#cac7ec" stroke="#cac7ec"/><path d="M254,393L177,497L429,542Z" fill="#beb9e5" stroke="#beb9e5"/><path d="M254,393L429,542L389,317Z" fill="#c0bce5" stroke="#c0bce5"/><path d="M389,317L429,542L491,350Z" fill="#bbb8e2" stroke="#bbb8e2"/><path d="M491,350L429,542L571,488Z" fill="#afaadc" stroke="#afaadc"/><path d="M491,350L571,488L656,427Z" fill="#ada7da" stroke="#ada7da"/><path d="M656,427L571,488L699,555Z" fill="#9d92d0" stroke="#9d92d0"/><path d="M656,427L699,555L801,471Z" fill="#9689cb" stroke="#9689cb"/><path d="M656,427L801,471L819,341Z" fill="#9c8fcd" stroke="#9c8fcd"/><path d="M819,341L801,471L924,324Z" fill="#9787c9" stroke="#9787c9"/><path d="M924,324L801,471L1033,544Z" fill="#8875c1" stroke="#8875c1"/><path d="M924,324L1033,544L1079,321Z" fill="#856fbd" stroke="#856fbd"/><path d="M1079,321L1033,544L1088,562Z" fill="#765cb4" stroke="#765cb4"/><path d="M1079,321L1088,562L1332,342Z" fill="#7561b2" stroke="#7561b2"/><path d="M1332,342L1088,562L1331,561Z" fill="#6254a7" stroke="#6254a7"/><path d="M1332,342L1331,561L1332,767Z" fill="#51479a" stroke="#51479a"/><path d="M-36,465L-46,643L40,482Z" fill="#cdc5eb" stroke="#cdc5eb"/><path d="M40,482L-46,643L41,680Z" fill="#c1b5e3" stroke="#c1b5e3"/><path d="M40,482L41,680L177,497Z" fill="#c2b9e5" stroke="#c2b9e5"/><path d="M177,497L41,680L213,688Z" fill="#b4a7dc" stroke="#b4a7dc"/><path d="M177,497L213,688L429,542Z" fill="#b1a7dc" stroke="#b1a7dc"/><path d="M429,542L213,688L331,727Z" fill="#a393d2" stroke="#a393d2"/><path d="M429,542L331,727L559,684Z" fill="#9989cc" stroke="#9989cc"/><path d="M429,542L559,684L571,488Z" fill="#9d92d0" stroke="#9d92d0"/><path d="M571,488L559,684L699,555Z" fill="#9486ca" stroke="#9486ca"/><path d="M699,555L559,684L672,725Z" fill="#8672bf" stroke="#8672bf"/><path d="M699,555L672,725L869,655Z" fill="#7d66b9" stroke="#7d66b9"/><path d="M699,555L869,655L801,471Z" fill="#8570bf" stroke="#8570bf"/><path d="M801,471L869,655L1033,544Z" fill="#7a62b8" stroke="#7a62b8"/><path d="M1033,544L869,655L1029,679Z" fill="#6a4aab" stroke="#6a4aab"/><path d="M1033,544L1029,679L1088,562Z" fill="#6746a9" stroke="#6746a9"/><path d="M1088,562L1029,679L1137,671Z" fill="#5e39a3" stroke="#5e39a3"/><path d="M1088,562L1137,671L1331,561Z" fill="#593ea0" stroke="#593ea0"/><path d="M1331,561L1137,671L1309,710Z" fill="#4b3596" stroke="#4b3596"/><path d="M1331,561L1309,710L1332,767Z" fill="#402e8e" stroke="#402e8e"/><path d="M-46,643L-57,786L41,680Z" fill="#b5a3da" stroke="#b5a3da"/><path d="M41,680L-57,786L83,870Z" fill="#a891d1" stroke="#a891d1"/><path d="M41,680L83,870L213,688Z" fill="#a691d1" stroke="#a691d1"/><path d="M213,688L83,870L257,840Z" fill="#9981c9" stroke="#9981c9"/><path d="M213,688L257,840L331,727Z" fill="#9985ca" stroke="#9985ca"/><path d="M331,727L257,840L400,819Z" fill="#8e76c3" stroke="#8e76c3"/><path d="M331,727L400,819L559,684Z" fill="#8d78c3" stroke="#8d78c3"/><path d="M559,684L400,819L539,875Z" fill="#8069bb" stroke="#8069bb"/><path d="M559,684L539,875L661,797Z" fill="#795fb6" stroke="#795fb6"/><path d="M559,684L661,797L672,725Z" fill="#7c63b8" stroke="#7c63b8"/><path d="M672,725L661,797L770,871Z" fill="#6c4ead" stroke="#6c4ead"/><path d="M672,725L770,871L869,655Z" fill="#6d4dad" stroke="#6d4dad"/><path d="M869,655L770,871L928,869Z" fill="#5d38a2" stroke="#5d38a2"/><path d="M869,655L928,869L1029,679Z" fill="#5e3aa3" stroke="#5e3aa3"/><path d="M1029,679L928,869L1154,801Z" fill="#4e2397" stroke="#4e2397"/><path d="M1029,679L1154,801L1137,671Z" fill="#502799" stroke="#502799"/><path d="M1137,671L1154,801L1309,710Z" fill="#462591" stroke="#462591"/><path d="M1309,710L1154,801L1332,767Z" fill="#3b1f8a" stroke="#3b1f8a"/><path d="M-57,786L-78,953L83,870Z" fill="#9e82c9" stroke="#9e82c9"/><path d="M83,870L-78,953L109,940Z" fill="#9275c2" stroke="#9275c2"/><path d="M83,870L109,940L257,840Z" fill="#9073c1" stroke="#9073c1"/><path d="M257,840L109,940L276,1017Z" fill="#8469ba" stroke="#8469ba"/><path d="M257,840L276,1017L421,987Z" fill="#7a60b4" stroke="#7a60b4"/><path d="M257,840L421,987L400,819Z" fill="#8063b8" stroke="#8063b8"/><path d="M400,819L421,987L523,922Z" fill="#7456b2" stroke="#7456b2"/><path d="M400,819L523,922L539,875Z" fill="#765ab3" stroke="#765ab3"/><path d="M539,875L523,922L627,979Z" fill="#684aa9" stroke="#684aa9"/><path d="M539,875L627,979L661,797Z" fill="#6a49ab" stroke="#6a49ab"/><path d="M661,797L627,979L770,871Z" fill="#623fa5" stroke="#623fa5"/><path d="M770,871L627,979L781,946Z" fill="#57339e" stroke="#57339e"/><path d="M770,871L781,946L928,869Z" fill="#53299b" stroke="#53299b"/><path d="M928,869L781,946L958,989Z" fill="#471d92" stroke="#471d92"/><path d="M928,869L958,989L1087,1024Z" fill="#3a0f88" stroke="#3a0f88"/><path d="M928,869L1087,1024L1154,801Z" fill="#3c0a8a" stroke="#3c0a8a"/><path d="M1154,801L1087,1024L1247,918Z" fill="#300082" stroke="#300082"/><path d="M1154,801L1247,918L1332,767Z" fill="#341184" stroke="#341184"/><path d="M-78,953L276,1017L109,940Z" fill="#8771ba" stroke="#8771ba"/><path d="M276,1017L1087,1024L627,979Z" fill="#533c9b" stroke="#533c9b"/><path d="M276,1017L627,979L421,987Z" fill="#6956a9" stroke="#6956a9"/><path d="M421,987L627,979L523,922Z" fill="#674ea8" stroke="#674ea8"/><path d="M627,979L1087,1024L958,989Z" fill="#3e1d8c" stroke="#3e1d8c"/><path d="M627,979L958,989L781,946Z" fill="#4c2b95" stroke="#4c2b95"/></g></svg>